<?xml version="1.0" encoding="UTF-8"?>
<svg version="1.1" xmlns="http://www.w3.org/2000/svg" width="500" height="500">
<path d="M0 0 C0.99 0.66 1.98 1.32 3 2 C3 2.66 3 3.32 3 4 C3.58910156 4.27328125 4.17820312 4.5465625 4.78515625 4.828125 C6.93112748 5.96355951 8.5735785 7.20572651 10.4375 8.75 C22.79258925 18.13710692 36.17006569 20.07281235 51.1875 21.0625 C64.91232873 22.00447633 64.91232873 22.00447633 71 23 C70.67 24.98 70.34 26.96 70 29 C71.14855469 28.54109375 72.29710937 28.0821875 73.48046875 27.609375 C98.51170713 17.68608384 98.51170713 17.68608384 107 18 C106.37860947 22.61604397 104.4834963 26.41033325 102.375 30.5 C102.02107178 31.2005249 101.66714355 31.9010498 101.30249023 32.62280273 C99.57818592 36.01415232 97.81039246 39.3731116 95.94921875 42.69140625 C95.32660156 43.80386719 94.70398438 44.91632813 94.0625 46.0625 C93.49660156 47.04347656 92.93070312 48.02445313 92.34765625 49.03515625 C90.12755341 53.91938251 89.56476115 57.62556152 91.1875 62.75 C93.54881177 66.98407629 95.42020203 68.48697282 100.03125 69.984375 C111.34957501 72.48256385 121.78833117 73.21737005 132 67 C137.82068075 63.02581539 142.32677665 58.66042447 146.75 53.1875 C152.2876312 46.86252787 157.89201901 45.87704282 166 45 C167.67642578 44.60941406 167.67642578 44.60941406 169.38671875 44.2109375 C174.28591658 43.92493028 177.34078273 45.53976777 181.625 47.75 C182.36234375 48.1109375 183.0996875 48.471875 183.859375 48.84375 C185.92395731 49.86494125 187.96313944 50.92482822 190 52 C190.90234375 52.45761719 191.8046875 52.91523438 192.734375 53.38671875 C195.69086543 55.49194383 197.55749574 58.1369624 199.625 61.0625 C209.30915087 74.10241888 222.25948632 83.84973004 236.83691406 90.88037109 C245.16477367 94.93802397 249.87764946 99.88142179 255.49121094 107.13476562 C258.35237846 110.6718724 261.49839706 113.94836603 264.625 117.25 C265.59518066 118.27589233 265.59518066 118.27589233 266.58496094 119.32250977 C268.38536023 121.21947425 270.1915131 123.1107488 272 125 C272.84820312 125.89074219 273.69640625 126.78148437 274.5703125 127.69921875 C279.19173001 132.44486791 284.11161702 136.65045183 289.28125 140.7890625 C292.66502661 143.54081187 295.89981312 146.43641083 299.125 149.37109375 C301.10921189 151.16448193 301.10921189 151.16448193 304 153 C303.43736042 156.50509251 302.34814818 157.95268008 299.625 160.1875 C299.01914062 160.69667969 298.41328125 161.20585937 297.7890625 161.73046875 C294.79252399 163.85683342 292.01321058 164.20344944 288.4375 164.3125 C287.25994141 164.36857422 287.25994141 164.36857422 286.05859375 164.42578125 C277.14080347 163.18435195 271.07420068 158.95502854 264.875 152.6875 C263.56119701 151.39841212 262.24609408 150.11064775 260.9296875 148.82421875 C260.28378662 148.18742188 259.63788574 147.550625 258.97241211 146.89453125 C256.37245538 144.39723403 253.6603005 142.04563555 250.93261719 139.68969727 C249.07962801 138.06961918 247.27355975 136.41248551 245.48046875 134.7265625 C244.93326172 134.21222656 244.38605469 133.69789063 243.82226562 133.16796875 C242.71039015 132.11852834 241.60110641 131.06633668 240.49414062 130.01171875 C238.0121086 127.68647779 236.2669713 126.08899043 233 125 C233.68964844 125.73863281 234.37929688 126.47726562 235.08984375 127.23828125 C239.80063204 132.31409662 244.40763057 137.41266237 248.75 142.8125 C251.78161482 146.57905175 254.9108707 150.04638286 258.3984375 153.390625 C260.01011733 155.01016668 261.39479793 156.71005214 262.8125 158.5 C269.65915632 166.57184745 279.7459777 171.22794148 289 176 C283.47500949 183.02260699 278.06850854 188.3374401 269 190 C255.9298342 191.2911258 248.36374963 186.02052189 238.56640625 178.01171875 C234.14674185 174.32168771 229.90292734 170.45212489 225.69921875 166.51953125 C219.15518404 160.37940119 219.15518404 160.37940119 212 155 C229.76811524 179.64065148 229.76811524 179.64065148 252 200 C246.00604709 206.63367874 237.32940757 208.54467013 228.62890625 209.02734375 C214.95317596 208.8850999 207.38167691 199.67331903 198.3125 190.4375 C197.38888672 189.50486328 196.46527344 188.57222656 195.51367188 187.61132812 C193.79623956 185.87658548 192.08088516 184.13978106 190.3684082 182.40014648 C187.92329451 179.9222666 185.4640047 177.45908271 183 175 C186.0767179 179.62745686 189.15496476 184.25389143 192.23461914 188.87939453 C193.28158751 190.45235799 194.32814104 192.02559764 195.37426758 193.59912109 C196.87992545 195.86368775 198.38708319 198.12724974 199.89453125 200.390625 C200.36027054 201.09181458 200.82600983 201.79300415 201.30586243 202.51544189 C203.0793366 205.17580529 204.82901368 207.78409958 206.81518555 210.29199219 C208 212 208 212 208.0625 214.9375 C206.38804394 219.76387336 203.01598262 221.85579365 198.6875 224.3125 C191.98987403 226.02584618 186.04458652 225.4998671 180 222 C177.17226309 219.83688395 174.65401134 217.43902208 172.125 214.9375 C171.11179688 214.0103418 171.11179688 214.0103418 170.078125 213.06445312 C165.67053081 208.73208896 164.19125169 205.56818143 163.9987793 199.37231445 C163.99938354 198.1980188 163.99938354 198.1980188 164 197 C163.65384084 190.92467281 163.21106546 186.76515302 159 182 C155.87153771 179.77658261 152.64871985 178.21623995 149 177 C149.15984375 176.45085937 149.3196875 175.90171875 149.484375 175.3359375 C150.71824176 169.74614716 150.67884439 163.96507586 148.8125 158.5625 C145.14443696 153.37661777 140.74360988 151.25239603 135 149 C135.04125 147.845 135.0825 146.69 135.125 145.5 C135.11392014 139.23987924 133.99837059 132.99796323 130 128 C125.40785807 124.49547063 120.10369077 124.03947105 114.47265625 124.09765625 C108.55447199 125.63545216 105.25409228 129.86784274 101.36328125 134.375 C100.58339844 135.24125 99.80351562 136.1075 99 137 C98.34 137 97.68 137 97 137 C96.75507813 136.40832031 96.51015625 135.81664062 96.2578125 135.20703125 C92.96081836 128.23786778 89.14261975 125.63088417 82 123 C80.96875 122.5875 79.9375 122.175 78.875 121.75 C73.95102746 122.17817153 71.32274789 125.56850764 68 129 C66.84371094 130.16015625 66.84371094 130.16015625 65.6640625 131.34375 C56.00207971 141.48722695 53.21755731 150.37062708 52 164 C46.482845 163.3661521 41.73252191 161.49435691 36.625 159.4375 C35.79355469 159.10814453 34.96210937 158.77878906 34.10546875 158.43945312 C32.06815382 157.63155238 30.03315558 156.8182989 28 156 C32.93144 131.89482685 41.01563897 108.23924949 49 85 C36.96374847 110.23542592 25.62817538 137.87137925 22.51953125 165.890625 C21.9038161 168.39052111 20.95569059 169.37640782 19 171 C13.93508885 169.58058386 10.10063755 167.36900455 5.8125 164.4375 C5.15685059 163.99349854 4.50120117 163.54949707 3.82568359 163.09204102 C-2.06658028 159.04910563 -7.61803706 154.70293023 -13 150 C-13.84820312 149.32839844 -14.69640625 148.65679687 -15.5703125 147.96484375 C-22.84679162 141.70613583 -23.92885102 135.17171314 -25 126 C-25.17144531 124.78699219 -25.34289063 123.57398438 -25.51953125 122.32421875 C-30.65135162 80.56894555 -22.4617924 38.73448655 -2 2 C-1.34 1.34 -0.68 0.68 0 0 Z " fill="#A7EC4F" transform="translate(77,140)"/>
<path d="M0 0 C0.89759033 0.39525879 1.79518066 0.79051758 2.7199707 1.19775391 C16.69250927 7.48666858 29.95928249 15.0694154 42.9375 23.1875 C54.89004678 30.61609165 65.14047714 33.29011471 79.25 33.1875 C78.92 32.589375 78.59 31.99125 78.25 31.375 C77.25 29.1875 77.25 29.1875 77.25 26.1875 C78.99023438 25.82398438 78.99023438 25.82398438 80.765625 25.453125 C103.58163423 20.60245809 118.8529822 12.70053443 135.25 -3.8125 C156.67250148 24.03675193 164.27550143 60.74709647 165.25 95.1875 C165.27191406 95.9417627 165.29382813 96.69602539 165.31640625 97.47314453 C165.55228477 107.15792357 165.27173134 116.72720055 164.375 126.375 C164.29660889 127.22344482 164.21821777 128.07188965 164.13745117 128.94604492 C163.96899202 130.58137461 163.77661189 132.21443328 163.55932617 133.84399414 C163.22473551 136.15846782 163.22473551 136.15846782 163.12231445 138.38842773 C162.25601647 145.91233934 156.97230665 150.38618254 151.7668457 155.36352539 C150.19802645 156.86492592 148.65729264 158.39108781 147.11914062 159.92382812 C134.54826903 172.31643962 134.54826903 172.31643962 129.25 174.1875 C126.68334961 173.82299805 126.68334961 173.82299805 124.25 172.1875 C121.20810177 165.93150361 120.05206619 159.16888794 118.609375 152.3984375 C115.72078155 139.40300297 111.86884136 126.84515112 107.64404297 114.22900391 C106.47609949 110.74112491 105.32469503 107.24809537 104.17578125 103.75390625 C103.43581004 101.5153226 102.69495969 99.27702931 101.953125 97.0390625 C101.61041565 96.00383453 101.2677063 94.96860657 100.91461182 93.90200806 C100.59377625 92.94515106 100.27294067 91.98829407 99.94238281 91.00244141 C99.66291809 90.16597076 99.38345337 89.32950012 99.09552002 88.46768188 C98.28429558 86.27998766 97.33585328 84.25066569 96.25 82.1875 C96.45568604 82.93918457 96.66137207 83.69086914 96.87329102 84.46533203 C100.71213698 98.54571245 104.47984512 112.64729336 107.896698 126.83685303 C108.36941893 128.78944716 108.8556533 130.73875359 109.34204102 132.68798828 C109.7644104 134.47052002 109.7644104 134.47052002 110.1953125 136.2890625 C110.44812988 137.33400879 110.70094727 138.37895508 110.96142578 139.45556641 C111.28351237 142.50476179 110.94391611 143.67974317 109.25 146.1875 C107.5234375 147.890625 107.5234375 147.890625 105.625 149.4375 C104.99335938 149.95828125 104.36171875 150.4790625 103.7109375 151.015625 C103.22882813 151.40234375 102.74671875 151.7890625 102.25 152.1875 C88.64327035 147.34955168 78.37864786 136.03180797 68.25 126.1875 C67.37166504 125.33406006 67.37166504 125.33406006 66.47558594 124.46337891 C58.92597741 117.09247239 51.75269638 109.51095136 45.25 101.1875 C48.60332335 99.51083832 52.26064875 100.65267001 55.875 101.125 C57.07769531 101.27485352 57.07769531 101.27485352 58.3046875 101.42773438 C60.28714691 101.6755418 62.26867009 101.93081807 64.25 102.1875 C63.06148437 101.80980469 61.87296875 101.43210937 60.6484375 101.04296875 C41.71617065 94.83462282 23.90367663 86.63292653 8.25 74.1875 C7.48816406 73.60742188 6.72632813 73.02734375 5.94140625 72.4296875 C0.8529923 68.32324817 -2.79992702 63.36767586 -6.57421875 58.0546875 C-10.76159024 52.53667911 -14.24392218 49.65532262 -20.75 47.1875 C-25.86993696 45.24545495 -29.17771549 43.39018766 -32.75 39.1875 C-33.08 38.1975 -33.41 37.2075 -33.75 36.1875 C-33.93175781 36.79980469 -34.11351562 37.41210938 -34.30078125 38.04296875 C-36.45361466 41.22869798 -39.38258999 41.63789139 -42.9375 42.5 C-43.90913086 42.77166992 -43.90913086 42.77166992 -44.90039062 43.04882812 C-49.48059788 44.22476545 -53.14996089 44.21992773 -57.75 43.1875 C-59.6875 41.625 -59.6875 41.625 -60.75 40.1875 C-60.4715625 41.858125 -60.4715625 41.858125 -60.1875 43.5625 C-60.15272736 50.11134723 -65.4524077 53.84026555 -69.75 58.1875 C-70.76149111 59.470188 -71.76320794 60.76071499 -72.75 62.0625 C-76.77018074 66.82383138 -82.75248723 68.97426268 -88.75 70.1875 C-96.04346528 70.79334696 -103.0557268 70.34300664 -109.75 67.1875 C-112 65.0625 -112 65.0625 -112.75 62.1875 C-111.5997834 53.90090302 -108.00020132 47.30393216 -104.0625 40 C-102.78194878 37.60066037 -101.50634327 35.19870384 -100.23046875 32.796875 C-99.62251465 31.65541016 -99.01456055 30.51394531 -98.38818359 29.33789062 C-97.03408862 26.73383078 -95.75814508 24.12712822 -94.55078125 21.453125 C-94.25582764 20.80754639 -93.96087402 20.16196777 -93.65698242 19.49682617 C-92.94346458 17.90293915 -92.25549157 16.29767933 -91.5703125 14.69140625 C-86.09123854 7.15474014 -75.39840635 6.70248506 -66.84310913 5.17901611 C-62.79662859 4.45736714 -58.75753151 3.69699901 -54.71875 2.93359375 C-53.9323967 2.78539185 -53.1460434 2.63718994 -52.33586121 2.48449707 C-45.56944982 1.19110687 -38.916285 -0.40267374 -32.29370117 -2.30249023 C-20.42995842 -5.70410632 -11.1680869 -5.02580123 0 0 Z " fill="#023125" transform="translate(284.75,136.8125)"/>
<path d="M0 0 C5.68507308 4.92706334 5.68507308 4.92706334 6.30859375 9.03125 C6.83379706 19.0896892 1.68059294 25.02033363 -4.46240234 32.43554688 C-15.38375852 45.67315039 -17.88189907 57.11166956 -19 74 C-28.44530466 71.50206819 -31.98747187 67.60139305 -36.80078125 59.40234375 C-40.56783541 51.85596489 -39.22420562 43.86268566 -37.08984375 36.00390625 C-33.88421486 27.16831982 -26.7122065 20.15798737 -20.6484375 13.1328125 C-17.7868896 9.7946794 -15.17490286 6.29390745 -12.6328125 2.70703125 C-8.93586313 -1.15796128 -4.94665891 -1.54583091 0 0 Z " fill="#053327" transform="translate(200,271)"/>
<path d="M0 0 C4.09830445 0.6471007 5.69433151 1.61238384 8.5625 4.5625 C10.80545932 8.28271873 10.87398258 10.90084885 10.3046875 15.12890625 C9.15344239 18.90377838 6.86116154 21.46362424 4.34375 24.4453125 C-3.10799589 33.30243152 -4.21082196 43.31958838 -3.4375 54.5625 C-2.93307724 57.64121824 -2.24279316 60.54265067 -1.4375 63.5625 C-16.75872695 61.99767956 -16.75872695 61.99767956 -22.4375 56.5625 C-27.19653854 48.43247582 -24.56875006 35.274452 -22.4375 26.5625 C-20.07487506 18.86585067 -13.9494344 12.96815438 -8.72094727 7.06274414 C-7.52129359 5.66044781 -6.41066694 4.18334074 -5.30859375 2.703125 C-3.4375 0.5625 -3.4375 0.5625 0 0 Z " fill="#053328" transform="translate(211.4375,295.4375)"/>
<path d="M0 0 C4.0524314 1.67383036 7.55676312 3.44982411 10.25 7 C11.45277477 11.20971169 11.7248431 14.49634065 9.70703125 18.51171875 C8.13052199 21.09330332 6.50740421 23.64094943 4.875 26.1875 C0.1641489 33.93678623 -1.25682108 41.19472135 -2.125 50.1875 C-9.65111877 49.35227331 -14.41115761 47.1100995 -19.5625 41.5625 C-22.19515325 37.56086706 -22.72201181 33.86124956 -22.125 29.1875 C-19.36982324 18.49874195 -13.71236679 8.28045656 -5.03515625 1.30859375 C-3.125 0.1875 -3.125 0.1875 0 0 Z " fill="#063428" transform="translate(157.125,267.8125)"/>
<path d="M0 0 C3.26140108 1.26605373 4.39363936 2.86306712 6.18359375 5.84765625 C6.500959 8.53525383 6.63839502 10.91941958 6.62109375 13.59765625 C7.00961014 25.49513048 11.75689096 30.90554861 20.171875 38.9765625 C20.83574219 39.59402344 21.49960938 40.21148437 22.18359375 40.84765625 C15.32887185 45.41747085 5.18023616 44.67858308 -2.81640625 43.84765625 C-8.77069062 41.41792408 -11.25468832 35.77687118 -13.87109375 30.21484375 C-16.4644851 23.72064888 -17.10284214 16.18238588 -15.09765625 9.42578125 C-11.7390213 2.22096756 -8.00487205 -0.7630294 0 0 Z " fill="#063428" transform="translate(228.81640625,324.15234375)"/>
<path d="" fill="#C3F286" transform="translate(0,0)"/>
</svg>
